<svg
  aria-label="Rutgers University Logo"
  id="ru"
  viewBox="0 0 225 67"
  x="0px"
  xml:space="preserve"
  xmlns="http://www.w3.org/2000/svg"
  y="0px"
>
  <title>Rutgers University</title>
  <path
    d="M183.6,62.3L183.6,62.3c-0.3,0-0.5,0-0.7,0l-0.1,0c-0.3,0.7-0.7,1.4-1.1,2.1c-0.1-0.3-0.3-0.6-0.5-0.9
    c-0.2-0.4-0.4-0.8-0.6-1.2l0,0c-0.3,0-0.5,0-0.8,0l0,0.1c0.5,0.9,1,1.8,1.5,2.7v0.7c0,0.4,0,0.8,0,1.2l0,0c0.3,0,0.5,0,0.8,0l0,0
    c0-0.5,0-1,0-1.4c0-0.2,0-0.3,0-0.5C182.5,64,183.1,63.1,183.6,62.3L183.6,62.3z M175.1,66.3h-0.4c0-0.2,0-0.4,0-0.6
    c0-0.3,0-0.6,0-0.9h0.4c0.5,0,1,0,1.5,0l0,0c0-0.2,0-0.3,0-0.5l0,0c-0.4,0-0.8,0-1.2,0h-0.7c0-0.5,0-0.9,0-1.4c0.7,0,1.4,0,2,0l0,0
    c0-0.2,0-0.3,0-0.5l0,0c-1,0-1.9,0-2.9,0l0,0c0,0.6,0,1.2,0,1.7c0,1,0,1.9,0,2.9l0,0c0.9,0,1.9,0,2.8,0l0,0c0-0.2,0-0.3,0-0.5l0,0
    C176.3,66.3,175.7,66.3,175.1,66.3L175.1,66.3z M168.2,63.3c0-0.5,0.5-0.6,0.9-0.6c0.4,0,0.8,0.1,1.1,0.3l0.1,0c0-0.2,0-0.4,0.1-0.6
    l0,0c-0.4-0.1-0.8-0.2-1.2-0.2c-0.8,0-1.6,0.4-1.6,1.3c0,1.5,2.3,1.2,2.3,2.3c0,0.6-0.5,0.7-1,0.7c-0.5,0-0.8-0.1-1.2-0.4l-0.1,0
    c0,0.2,0,0.4,0,0.6l0,0c0.4,0.2,0.9,0.3,1.3,0.3c0.9,0,1.8-0.4,1.8-1.4C170.6,64,168.2,64.3,168.2,63.3L168.2,63.3z M163.5,63.6
    c0-0.2-0.1-0.4-0.2-0.5c-0.3-0.3-0.7-0.3-1-0.3c-0.1,0-0.3,0-0.4,0c0,0.2,0,0.3,0,0.5v0.6c0,0.2,0,0.4,0,0.5c0.1,0,0.2,0,0.3,0
    C162.7,64.4,163.5,64.3,163.5,63.6L163.5,63.6z M163.1,64.8c0.5,0.7,1,1.4,1.5,2l0,0.1c-0.3,0-0.6,0-0.8,0l0,0
    c-0.2-0.4-0.5-0.7-0.7-1.1c-0.2-0.3-0.4-0.6-0.6-0.9c-0.2,0-0.3,0-0.5,0c0,0.6,0,1.3,0.1,1.9l0,0c-0.3,0-0.5,0-0.7,0l0,0
    c0-0.6,0-1.3,0-1.9c0-0.9,0-1.8-0.1-2.7l0,0c0.3,0,0.6,0,0.9,0h0.4c0.9,0,1.9,0.1,1.9,1.3C164.2,64.2,163.7,64.6,163.1,64.8
    L163.1,64.8z M155.9,66.3h-0.4c0-0.2,0-0.4,0-0.6c0-0.3,0-0.6,0-0.9h0.4c0.5,0,1,0,1.5,0l0,0c0-0.2,0-0.3,0-0.5l0,0
    c-0.4,0-0.8,0-1.2,0h-0.7c0-0.5,0-0.9,0-1.4c0.7,0,1.4,0,2,0l0,0c0-0.2,0-0.3,0-0.5l0,0c-1,0-1.9,0-2.9,0l0,0c0,0.6,0,1.2,0,1.7
    c0,1,0,1.9,0,2.9l0,0c0.9,0,1.9,0,2.8,0l0,0c0-0.2,0-0.3,0-0.5l0,0C157.1,66.3,156.5,66.3,155.9,66.3L155.9,66.3z M151.2,62.2
    c-0.3,0-0.5,0-0.8,0l0,0c0,0.8,0,1.5,0,2.3V65c0,0.2,0,0.7,0,0.9c-0.1,0.3-0.3,0.4-0.6,0.4c-0.1,0-0.3,0-0.4-0.1l0,0v0.5l0,0.1
    c0.2,0,0.3,0.1,0.5,0.1c0.9,0,1.3-0.5,1.3-1.3c0-0.6,0-1.1,0-1.7C151.2,63.4,151.2,62.8,151.2,62.2L151.2,62.2z M142.7,62.2
    L142.7,62.2c-0.1,0.6-0.2,1.1-0.3,1.6l-0.5,2.6l-0.5-2.8c-0.1-0.5-0.2-0.9-0.2-1.4l0,0c-0.4,0-0.7,0-1.1,0l0,0
    c-0.3,1.4-0.5,2.8-0.8,4.2c-0.3-1.4-0.6-2.8-0.8-4.2l0,0c-0.3,0-0.5,0-0.8,0l0,0c0.2,0.8,0.4,1.5,0.5,2.3c0.2,0.8,0.4,1.5,0.5,2.3
    l0,0c0.3,0,0.7,0,1,0l0,0c0.3-1.4,0.6-2.8,0.9-4.2l0.6,2.9c0.1,0.4,0.2,0.9,0.3,1.3l0,0c0.3,0,0.7,0,1,0l0,0c0-0.2,0.1-0.4,0.1-0.7
    c0.1-0.6,0.3-1.2,0.4-1.8c0.2-0.7,0.3-1.4,0.5-2.1l0,0C143.1,62.2,142.9,62.2,142.7,62.2L142.7,62.2z M132.8,66.3h-0.4
    c0-0.2,0-0.4,0-0.6c0-0.3,0-0.6,0-0.9h0.4c0.5,0,1,0,1.5,0l0,0c0-0.2,0-0.3,0-0.5l0,0c-0.4,0-0.8,0-1.2,0h-0.7c0-0.5,0-0.9,0-1.4
    c0.7,0,1.4,0,2,0l0,0c0-0.2,0-0.3,0-0.5l0,0c-1,0-1.9,0-2.9,0l0,0c0,0.6,0,1.2,0,1.7c0,1,0,1.9,0,2.9l0,0c0.9,0,1.9,0,2.8,0l0,0
    c0-0.2,0-0.3,0-0.5l0,0C134,66.3,133.4,66.3,132.8,66.3L132.8,66.3z M128.1,62.2c-0.2,0-0.4,0-0.6,0l0,0c0.1,1.3,0.1,2.6,0.1,3.8
    c-0.7-1.3-1.5-2.6-2.2-3.9l-0.1,0c-0.3,0-0.6,0-0.9,0l0,0c0,0.6,0,1.3,0,2c0,0.9,0,1.7,0,2.6l0,0c0.2,0,0.4,0,0.7,0l0,0
    c0-0.6,0-1.1-0.1-1.7l-0.1-2.3l1.1,1.9c0.4,0.7,0.8,1.4,1.2,2.1l0.1,0c0.3,0,0.6,0,0.8,0l0,0c0-0.6,0-1.1,0-1.7
    C128.1,64.2,128.1,63.2,128.1,62.2L128.1,62.2z M115.2,62.2L115.2,62.2c0,0.7,0,1.3,0,2v0.7c0,0.6,0,1.3,0,1.9l0,0
    c0.3,0,0.5,0,0.8,0l0,0c0-0.5,0-1.1,0-1.6c0-0.1,0-0.2,0-0.4c0.5,0,1.1,0,1.6,0l0,0c0-0.2,0-0.3,0-0.5l0,0c-0.6,0-1.1,0-1.7,0
    c0-0.5,0-1,0-1.5c0.6,0,1.3,0,1.9,0l0,0c0-0.2,0-0.4,0-0.5l0,0C117,62.2,116.1,62.2,115.2,62.2L115.2,62.2z M111,64.6
    c0-0.9-0.3-1.9-1.4-1.9c-1.1,0-1.4,1-1.4,1.9c0,0.9,0.3,1.9,1.4,1.9C110.7,66.4,111,65.4,111,64.6L111,64.6z M111.8,64.6
    c0,1.4-0.7,2.4-2.2,2.4c-1.5,0-2.2-1-2.2-2.4c0-1.4,0.7-2.5,2.2-2.5C111.1,62.1,111.8,63.3,111.8,64.6L111.8,64.6z M221.5,56.8
    c0.5-0.9,1-1.8,1.5-2.7l0-0.1c-0.2,0-0.4,0-0.7,0l-0.1,0c-0.3,0.7-0.7,1.4-1.1,2.1c-0.1-0.3-0.3-0.6-0.5-0.9
    c-0.2-0.4-0.4-0.8-0.6-1.2l0,0c-0.3,0-0.5,0-0.8,0l0,0.1c0.5,0.9,1,1.8,1.5,2.7v0.7c0,0.4,0,0.8,0,1.2l0,0c0.3,0,0.5,0,0.8,0l0,0
    c0-0.5,0-1,0-1.4C221.5,57.1,221.5,57,221.5,56.8L221.5,56.8z M213.1,54.1L213.1,54.1c0,0.2,0,0.4-0.1,0.5l0,0c0.4,0,0.8,0,1.3,0
    c0,0.4,0,0.9,0,1.3c0,0.9,0,1.9,0,2.8l0,0c0.3,0,0.5,0,0.8,0l0,0c0-0.7,0-1.4,0-2.1c0-0.6,0-1.3,0-1.9c0.4,0,0.8,0,1.3,0l0,0
    c0-0.2,0-0.3,0-0.5l0,0C215.3,54.1,214.2,54.1,213.1,54.1L213.1,54.1z M209.9,54.1L209.9,54.1c-0.3,0-0.5,0-0.8,0l0,0
    c0,0.8,0.1,1.7,0.1,2.5v0.7c0,0.5,0,0.9,0,1.4l0,0c0.3,0,0.5,0,0.8,0l0,0c0-0.8-0.1-1.7-0.1-2.5C209.9,55.5,209.9,54.8,209.9,54.1
    L209.9,54.1z M203.4,55.2c0-0.5,0.5-0.6,0.9-0.6c0.4,0,0.8,0.1,1.1,0.3l0.1,0c0-0.2,0-0.4,0.1-0.6l0,0c-0.4-0.1-0.8-0.2-1.2-0.2
    c-0.8,0-1.6,0.4-1.6,1.3c0,1.5,2.3,1.2,2.3,2.3c0,0.6-0.5,0.7-1,0.7c-0.5,0-0.8-0.1-1.2-0.4l-0.1,0c0,0.2,0,0.4,0,0.6l0,0
    c0.4,0.2,0.9,0.3,1.3,0.3c0.9,0,1.8-0.4,1.8-1.4C205.8,55.9,203.4,56.2,203.4,55.2L203.4,55.2z M198.7,55.4c0-0.2-0.1-0.4-0.2-0.5
    c-0.3-0.3-0.7-0.3-1-0.3c-0.1,0-0.3,0-0.4,0c0,0.2,0,0.3,0,0.5v0.6c0,0.2,0,0.4,0,0.5c0.1,0,0.2,0,0.3,0
    C197.9,56.2,198.7,56.1,198.7,55.4L198.7,55.4z M198.3,56.7c0.5,0.7,1,1.4,1.5,2l0,0.1c-0.3,0-0.6,0-0.8,0l0,0
    c-0.2-0.4-0.5-0.7-0.7-1.1c-0.2-0.3-0.4-0.6-0.6-0.9c-0.2,0-0.3,0-0.5,0c0,0.6,0,1.3,0.1,1.9l0,0c-0.3,0-0.5,0-0.8,0l0,0
    c0-0.6,0-1.3,0-1.9c0-0.9,0-1.8-0.1-2.7l0,0c0.3,0,0.6,0,0.9,0h0.4c0.9,0,1.9,0.1,1.9,1.3C199.4,56.1,198.9,56.5,198.3,56.7
    L198.3,56.7z M191.1,58.2h-0.4c0-0.2,0-0.4,0-0.6c0-0.3,0-0.6,0-0.9h0.4c0.5,0,1,0,1.5,0l0,0c0-0.2,0-0.3,0-0.5l0,0
    c-0.4,0-0.8,0-1.2,0h-0.7c0-0.5,0-0.9,0-1.4c0.7,0,1.4,0,2,0l0,0c0-0.2,0-0.3,0-0.5l0,0c-1,0-1.9,0-2.9,0l0,0c0,0.6,0,1.2,0,1.7
    c0,1,0,1.9,0,2.9l0,0c0.9,0,1.9,0,2.8,0l0,0c0-0.2,0-0.3,0-0.5l0,0C192.3,58.2,191.7,58.2,191.1,58.2L191.1,58.2z M186.2,54.1
    L186.2,54.1c-0.2,0.7-0.4,1.4-0.6,2.1l-0.6,2.1c-0.4-1.4-0.8-2.8-1.2-4.2l0,0c-0.3,0-0.5,0-0.8,0l0,0c0.3,1,0.6,2,0.9,3
    c0.1,0.4,0.2,0.7,0.3,1c0.1,0.2,0.1,0.4,0.2,0.6l0,0c0.3,0,0.7,0,1,0l0,0c0.2-0.8,0.5-1.5,0.7-2.3c0.3-0.8,0.5-1.5,0.7-2.3l0,0
    C186.6,54.1,186.4,54.1,186.2,54.1L186.2,54.1z M179.9,58.7c0-0.8-0.1-1.7-0.1-2.5c0-0.7,0-1.4,0-2.1l0-0.1c-0.3,0-0.5,0-0.8,0l0,0
    c0,0.8,0.1,1.7,0.1,2.5v0.7c0,0.5,0,0.9,0,1.4l0,0C179.3,58.8,179.6,58.8,179.9,58.7L179.9,58.7z M174.5,58.7L174.5,58.7
    c0.3,0,0.6,0,0.9,0l0,0c0-0.6,0-1.1,0-1.7c0-1,0-1.9,0-2.9l0,0c-0.2,0-0.4,0-0.6,0l0,0c0.1,1.3,0.1,2.6,0.1,3.8
    c-0.7-1.3-1.5-2.6-2.2-3.9l-0.1,0c-0.3,0-0.6,0-0.9,0l0,0c0,0.6,0,1.3,0,2c0,0.9,0,1.7,0,2.6l0,0c0.2,0,0.4,0,0.7,0l0,0
    c0-0.6,0-1.1-0.1-1.7l-0.1-2.3l1.1,1.9C173.7,57.4,174.1,58,174.5,58.7L174.5,58.7z M168.1,57.1c0-0.3,0-0.6,0-1v-0.9
    c0-0.4,0-0.8,0-1.1l0,0c-0.2,0-0.4,0-0.6,0l0,0c0,0.8,0,1.7,0,2.5c0,0.5,0.1,1.1-0.4,1.4c-0.2,0.2-0.5,0.2-0.8,0.2
    c-0.2,0-0.5-0.1-0.7-0.2c-0.5-0.3-0.4-1-0.4-1.5c0-0.8,0-1.7,0-2.5l0,0c-0.3,0-0.5,0-0.8,0l0,0c0,1,0,1.9,0,2.9c0,0.2,0,0.5,0.1,0.7
    c0.2,0.8,1,1.1,1.8,1.1C167.5,58.9,168.1,58.3,168.1,57.1L168.1,57.1z M157.6,58.7c0-0.2,0-0.3,0-0.5l0,0c-0.6,0-1.2,0-1.8,0h-0.4
    c0-0.2,0-0.4,0-0.6c0-0.3,0-0.6,0-0.9h0.4c0.5,0,1,0,1.5,0l0,0c0-0.2,0-0.3,0-0.5l0,0c-0.4,0-0.8,0-1.2,0h-0.7c0-0.5,0-0.9,0-1.4
    c0.7,0,1.4,0,2,0l0,0c0-0.2,0-0.3,0-0.5l0,0c-1,0-1.9,0-2.9,0l0,0c0,0.6,0,1.2,0,1.7c0,1,0,1.9,0,2.9l0,0
    C155.7,58.8,156.6,58.8,157.6,58.7L157.6,58.7z M148.3,54.1L148.3,54.1c0,0.2,0,0.4-0.1,0.5l0,0c0.4,0,0.8,0,1.3,0
    c0,0.4,0,0.9,0,1.3c0,0.9,0,1.9,0,2.8l0,0c0.3,0,0.5,0,0.8,0l0,0c0-0.7,0-1.4,0-2.1c0-0.6,0-1.3,0-1.9c0.4,0,0.8,0,1.3,0l0,0
    c0-0.2,0-0.3,0-0.5l0,0C150.5,54.1,149.4,54.1,148.3,54.1L148.3,54.1z M144.6,56.8l-0.7-2.2l-0.7,2.2c0.2,0,0.5,0,0.7,0
    C144.1,56.8,144.4,56.8,144.6,56.8L144.6,56.8z M144.5,54.1c0.5,1.5,1,3.1,1.5,4.6l0,0.1c-0.3,0-0.5,0-0.8,0l0,0
    c-0.1-0.5-0.3-0.9-0.4-1.4c-0.3,0-0.6,0-0.9,0c-0.3,0-0.6,0-0.8,0c-0.1,0.5-0.3,0.9-0.4,1.4l0,0c-0.2,0-0.5,0-0.7,0l0,0
    c0.3-0.9,0.6-1.7,0.9-2.6c0.2-0.7,0.5-1.3,0.7-2l0.1,0C143.9,54.1,144.2,54.1,144.5,54.1L144.5,54.1z M137.6,56c0,0.9,0,1.9,0,2.8
    l0,0c0.3,0,0.5,0,0.8,0l0,0c0-0.7,0-1.4,0-2.1c0-0.6,0-1.3,0-1.9c0.4,0,0.8,0,1.3,0l0,0c0-0.2,0-0.3,0-0.5l0,0c-1.1,0-2.2,0-3.3,0
    l0,0c0,0.2,0,0.3,0,0.5l0,0c0.4,0,0.8,0,1.3,0C137.6,55.1,137.6,55.5,137.6,56L137.6,56z M133.5,57.5c0-1.6-2.4-1.3-2.4-2.2
    c0-0.5,0.5-0.6,0.9-0.6c0.4,0,0.8,0.1,1.1,0.3l0.1,0c0-0.2,0-0.4,0.1-0.6l0,0c-0.4-0.1-0.8-0.2-1.2-0.2c-0.8,0-1.6,0.4-1.6,1.3
    c0,1.5,2.3,1.2,2.3,2.3c0,0.6-0.5,0.7-1,0.7c-0.5,0-0.8-0.1-1.2-0.4l-0.1,0c0,0.2,0,0.4,0,0.6l0,0c0.4,0.2,0.9,0.3,1.3,0.3
    C132.6,58.9,133.5,58.4,133.5,57.5L133.5,57.5z M122,58.2h-0.4c0-0.2,0-0.4,0-0.6c0-0.3,0-0.6,0-0.9h0.4c0.5,0,1,0,1.5,0l0,0
    c0-0.2,0-0.3,0-0.5l0,0c-0.4,0-0.8,0-1.2,0h-0.7c0-0.5,0-0.9,0-1.4c0.7,0,1.4,0,2,0l0,0c0-0.2,0-0.3,0-0.5l0,0c-1,0-1.9,0-2.9,0l0,0
    c0,0.6,0,1.2,0,1.7c0,1,0,1.9,0,2.9l0,0c0.9,0,1.9,0,2.8,0l0,0c0-0.2,0-0.3,0-0.5l0,0C123.2,58.2,122.6,58.2,122,58.2L122,58.2z
        M114.3,56.5c0.5,0,1.1,0,1.6,0c0.2,0,0.4,0,0.6,0V57c0,0.6,0,1.2,0,1.7l0,0c0.3,0,0.5,0,0.8,0l0,0c-0.1-0.6-0.1-1.3-0.1-1.9v-0.7
    c0-0.7,0-1.4,0-2l0,0c-0.3,0-0.5,0-0.8,0l0,0c0,0.6,0,1.2,0.1,1.8c-0.3,0-0.7,0-1,0h-0.4c-0.3,0-0.5,0-0.8,0v-0.2c0-0.5,0-1.1,0-1.6
    l0,0c-0.3,0-0.5,0-0.8,0l0,0c0.1,1,0,1.9,0,2.9c0,0.6,0,1.1,0,1.7l0,0c0.3,0,0.5,0,0.8,0l0,0c0-0.5-0.1-1.1-0.1-1.6V56.5z
        M108.3,54.6c-0.4,0-0.8,0-1.3,0l0,0c0-0.2,0-0.3,0-0.5l0,0c1.1,0,2.2,0,3.3,0l0,0c0,0.2,0,0.3,0,0.5l0,0c-0.4,0-0.8,0-1.3,0
    c0,0.6,0,1.3,0,1.9c0,0.7,0,1.4,0,2.1l0,0c-0.3,0-0.5,0-0.8,0l0,0c0-0.9,0-1.9,0-2.8C108.3,55.5,108.3,55.1,108.3,54.6L108.3,54.6z"
    fill="#000000"
  ></path>
  <path
    d="M0,0v36l0,0.5c0.2,5.8,2.2,10.8,5.8,14.9
    c6.6,7.5,16.7,9.4,17.8,9.5c0.1,0,0.1,0,0.2,0l0.2,0l0.2,0l0,0c0.7-0.1,11.1-1.8,18-9.6c1.6-1.8,2.8-3.8,3.8-5.9
    c1.3-2.9,1.9-6.1,2-9.5V0H0z M46.3,1.2L33,15.7l-0.3-0.2l6.5-14.2H46.3z M38.2,1.2l-7.9,12.9L29.9,14L33,1.2H38.2z M27.5,1.2h4.3
    l-4.4,12L27,13.2L27.5,1.2z M26.1,1.2l-1.9,11.7h-0.3L22.1,1.2H26.1z M20.7,1.2l0.5,11.9l-0.3,0.1l-4.4-12H20.7z M15.1,1.2L18.2,14
    l-0.3,0.1L10,1.2H15.1z M8.9,1.2l6.6,14.2l-0.3,0.2L1.8,1.2H8.9z M46.9,9.3l-9.4,6.9h3.6l5.8-5.4V36l0,0.6c-0.1,3.1-0.8,5.9-1.9,8.5
    c-0.9,2-2.1,3.9-3.6,5.6c-6.7,7.5-16.9,9.1-17.3,9.2l0,0l0,0l0,0c0,0-0.1,0-0.1,0c-1.1-0.2-10.8-2-17.1-9.1c-3.5-4-5.4-8.9-5.5-14.6
    V10.7l5.8,5.4h3.6L1.2,9.3v-8l10.9,14.9l24,0L46.9,1.2V9.3z M2.6,36l0,0.5c0.2,5.2,1.9,9.6,5.2,13.2c5.3,5.9,13.1,8,15.5,8.5V17.5
    H2.6V36z M9.1,40.8h-2v-0.2l0.4,0l0.1,0c0.2,0,0.2-0.1,0.2-0.5l0-2c0-0.6,0-0.6-0.2-0.6c-0.1,0-0.1,0-0.2,0L7,37.6l0-0.2l0.1,0
    C7.4,37.3,8.3,37,8.4,37l0.1,0.1l0,3c0,0.5,0,0.6,0.3,0.6l0.4,0V40.8z M18.4,35.3v0.4H7.6v-0.4H18.4z M7.6,34.9v-0.4h10.8v0.4H7.6z
        M12.6,37.2c-0.2,0.5-0.4,0.9-1,2.1c-0.3,0.7-0.4,0.8-0.6,1.6l-0.1,0l-0.1-0.1c-0.2-0.1-0.3-0.2-0.5-0.4c0.1-0.4,0.8-1.2,1.3-2
    c0.3-0.4,0.3-0.7,0.4-0.9l-1.3,0c-0.5,0-0.5,0-0.7,0.5l-0.2,0l0-0.2c0-0.3,0.1-0.5,0.2-0.8h2.4l0.1,0.1L12.6,37.2z M14.5,40.9
    c-0.7,0-1.3-0.5-1.3-1.6c0-1.6,1.1-2.3,2-2.3c0.3,0,0.5,0.1,0.6,0.1l0,0.2l-0.1,0c-0.1,0-0.2,0-0.3,0c-0.8,0-1.4,0.7-1.4,2
    c0,0.9,0.2,1.5,0.7,1.5c0.4,0,0.5-0.4,0.5-0.8c0-0.6-0.3-1.1-0.8-1.1c-0.1,0-0.1,0-0.2,0l0-0.1l0.1,0c0.1-0.1,0.3-0.2,0.6-0.2
    c0.5,0,0.9,0.4,0.9,1C15.8,40.4,15.2,40.9,14.5,40.9z M17.8,40.9c-0.7,0-1.3-0.5-1.3-1.6c0-1.6,1.1-2.3,2-2.3c0.3,0,0.5,0.1,0.6,0.1
    l0,0.2l-0.1,0c-0.1,0-0.2,0-0.3,0c-0.8,0-1.4,0.7-1.4,2c0,0.9,0.2,1.5,0.7,1.5c0.4,0,0.5-0.4,0.5-0.8c0-0.6-0.3-1.1-0.8-1.1
    c-0.1,0-0.1,0-0.2,0l0-0.1l0.1,0c0.1-0.1,0.3-0.2,0.6-0.2c0.5,0,0.9,0.4,0.9,1C19.1,40.4,18.5,40.9,17.8,40.9z M13,22.9
    c0.5,0,0.9,0.4,0.9,0.9s-0.4,0.9-0.9,0.9s-0.9-0.4-0.9-0.9S12.5,22.9,13,22.9z M8.7,25.5c0.4,0,0.8,0.1,1.1,0.2
    c0.1,0,0.1,0.1,0.2,0.1c0.4,0.2,0.9,0.3,1.3,0.3l0,0l0.1,0l0.1,0c0.5,0,1-0.3,1.2-0.8h0.6c0.2,0.5,0.7,0.8,1.2,0.8c0,0,0.1,0,0.1,0
    h0l0.3,0c0.3,0,0.7-0.1,1-0.2c0.1-0.1,0.2-0.1,0.3-0.2c0.3-0.1,0.7-0.2,1-0.2c1.5,0,2.7,1.2,2.7,2.7c0,0.7-0.4,1.4-1,2.1
    c0,0,0,0,0,0c-0.4,0.4-0.6,0.9-0.7,1.5c0,0.1,0,0.2,0,0.3v0.3l0,0.2c0,0.3,0.1,0.5,0.2,0.8v0.7H7.6v-0.6l0.1-0.2
    c0.1-0.3,0.2-0.6,0.2-0.9c0-0.2,0-0.3,0-0.4c-0.1-0.6-0.3-1.1-0.7-1.5c0,0,0,0,0-0.1c-0.6-0.7-1-1.4-1-2.1C6,26.7,7.2,25.5,8.7,25.5
    z M24.7,58.2l0.1,0c2.6-0.6,10.2-2.7,15.4-8.5c3.3-3.7,5-8.3,5.2-13.7V17.5H24.7V58.2z M32.1,39.8l-0.8-0.4l-0.8,0.4l0.2-0.9
    L30,38.3l0.9-0.1l0.4-0.8l0.4,0.8l0.9,0.1L32,38.9L32.1,39.8z M39.8,39.8L39,39.4l-0.8,0.4l0.2-0.9l-0.6-0.6l0.9-0.1l0.4-0.8
    l0.4,0.8l0.9,0.1l-0.6,0.6L39.8,39.8z M35.4,26.3l0.2-0.1c0.1-0.1,0.3-0.2,0.4-0.3c0.3-0.2,0.9-0.3,1.6-0.3c0.3,0,0.7,0,1.1,0.1
    c0.1,0,0.3,0,0.5,0.1c0.5,0,1.1,0,1.7-0.2l0.2-0.1v0.5l0.3-0.1l0.3-0.1l0.3-0.1v0.5l0.3-0.1l0.3-0.1l0.3-0.1v9.9l-0.1,0l-0.3,0.1
    c-1.4,0.5-2.6,0.7-3.6,0.5c-1.1-0.2-2-0.1-2.7,0.3h-0.6V26.3z M35.5,39.2l0.9,0.1L35.8,40l0.2,0.9l-0.8-0.4l-0.8,0.4l0.2-0.9
    l-0.6-0.6l0.9-0.1l0.4-0.8L35.5,39.2z M27.6,25.9l0.3,0.1l0.3,0.1l0.3,0.1v-0.5l0.3,0.1l0.3,0.1l0.3,0.1v-0.5l0.2,0.1l0.3,0.1
    c0.5,0.1,1,0.1,1.4,0.1c0.2,0,0.3,0,0.5-0.1c0.4-0.1,0.7-0.1,1.1-0.1c0.7,0,1.3,0.2,1.6,0.3c0.2,0.1,0.5,0.2,0.7,0.4v10.5h-0.6
    l-0.2-0.1c-0.7-0.3-1.5-0.4-2.5-0.2c-1,0.2-2.3,0-3.9-0.6l-0.1,0V25.9z M35.9,36.3l-0.2,0.1V36l0.1,0c0,0,0,0,0.1,0
    c0.7-0.4,1.7-0.6,2.8-0.4c0.8,0.1,1.7,0.1,2.8-0.2l0.3-0.1l0.1,0v-8.7c0.1,0,0.3-0.1,0.4-0.1v9.1c-1.4,0.5-2.7,0.7-3.6,0.5
    C37.6,35.8,36.7,35.9,35.9,36.3z M28.3,35.6L28,35.5l0.2-9l0.2,0.1v8.7l0.1,0c1.2,0.4,2.3,0.5,3.1,0.3c1.1-0.2,2-0.1,2.8,0.4l0,0
    l0,0l0.1,0v0.4c-0.8-0.5-1.8-0.6-3-0.4C30.7,36.2,29.6,36.1,28.3,35.6z M35.9,35.5l-0.2,0.1v-0.4l0.1-0.1c0.2-0.1,0.7-0.4,1.7-0.5
    c0,0,0.1,0,0.1,0c0.1,0,0.2,0,0.2,0c0.2,0,0.5,0,0.7,0.1c0.6,0.1,1.3,0.1,2-0.1l0.3-0.1l0.2,0v-8.3c0.1,0,0.3-0.1,0.4-0.1V35
    c-1.1,0.3-2,0.4-2.8,0.3C37.6,35,36.7,35.1,35.9,35.5z M29.1,35L28.8,35l0.2-8.7l0.2,0v8.3l0.2,0c0.9,0.2,1.7,0.2,2.3,0.1
    c0.3,0,0.5-0.1,0.7-0.1c0.1,0,0.2,0,0.2,0c0,0,0.1,0,0.1,0c0.9,0,1.4,0.3,1.6,0.4l0.1,0l0.1,0.1v0.4c-0.8-0.5-1.8-0.6-3-0.4
    C30.9,35.4,30.1,35.3,29.1,35z M32.7,32.9c0.3,0,0.6,0,0.9,0.1l0.2,0.1v0.5c-0.4-0.2-0.8-0.2-1.1-0.2c-0.2,0-0.4,0-0.6,0.1
    c-0.2,0-0.4,0.1-0.7,0.1c-0.3,0-0.5,0-0.8,0l-0.3,0V33c0.4,0.1,0.7,0.1,1.1,0.1c0.2,0,0.4-0.1,0.6-0.1C32.2,33,32.4,32.9,32.7,32.9z
        M36.7,33.5l-0.2,0.1v-0.5c0.4-0.1,0.8-0.2,1.1-0.2c0.3,0,0.5,0,0.7,0.1c0.2,0,0.3,0.1,0.6,0.1c0.3,0,0.5,0,0.8,0l0.3,0v0.5
    c-0.4,0.1-0.7,0.1-1.1,0.1c-0.3,0-0.5-0.1-0.7-0.1c-0.2,0-0.4-0.1-0.6-0.1C37.3,33.4,37,33.4,36.7,33.5z M8.9,32.1h1.3v1.3H8.9V32.1
    z M11.2,32.1h1.3l0,0.1v1.2h-1.3V32.1z M15.8,32.1h1.3v1.3h-1.3V32.1z M14.8,33.3h-1.3v-1.3h1.3V33.3z M36.7,32.3l-0.2,0.1v-0.5
    c0.4-0.1,0.8-0.2,1.1-0.2c0.3,0,0.5,0,0.7,0.1c0.2,0,0.3,0.1,0.6,0.1c0.3,0,0.5,0,0.8,0l0.3,0v0.5c-0.4,0.1-0.7,0.1-1.1,0.1
    c-0.3,0-0.5-0.1-0.7-0.1c-0.2,0-0.4-0.1-0.6-0.1C37.3,32.1,37,32.2,36.7,32.3z M33.8,32.4c-0.4-0.2-0.8-0.2-1.1-0.2
    c-0.2,0-0.4,0-0.6,0.1c-0.2,0-0.4,0.1-0.7,0.1c-0.3,0-0.5,0-0.8,0l-0.3,0v-0.5c0.4,0.1,0.7,0.1,1.1,0.1c0.2,0,0.4-0.1,0.6-0.1
    c0.2,0,0.4-0.1,0.7-0.1c0.3,0,0.6,0,0.9,0.1l0.2,0.1V32.4z M7.9,29.5c-0.6-0.7-0.7-0.9-0.7-1.4c0-0.8,0.7-1.5,1.5-1.5
    c0.2,0,0.4,0,0.6,0.1c0.1,0,0.1,0.1,0.2,0.1c0.6,0.3,1.2,0.4,1.8,0.4c0,0,0,0,0.1,0c0.1,0,0.1,0,0.1,0c0.2,0,0.4,0,0.6-0.1l0.2-0.1
    l0.1-0.1v4.2H8.8l0-0.1C8.6,30.5,8.3,30,7.9,29.5z M17.2,31.2h-3.6V27l0.1,0.1c0.3,0.1,0.5,0.2,0.8,0.2c0.1,0,0.1,0,0.2,0
    c0,0,0,0,0.1,0c0.5,0,1-0.1,1.5-0.3l0.2-0.1l0.1-0.1c0.1,0,0.1-0.1,0.2-0.1c0.2-0.1,0.4-0.1,0.6-0.1c0.8,0,1.5,0.7,1.5,1.5
    c0,0.5-0.7,1.3-0.7,1.4c-0.4,0.4-0.6,0.9-0.8,1.3L17.2,31.2L17.2,31.2z M36.7,31.1l-0.2,0.1v-0.5c0.4-0.1,0.8-0.2,1.1-0.2
    c0.3,0,0.5,0,0.7,0.1c0.2,0,0.3,0.1,0.6,0.1c0.3,0,0.5,0,0.8,0l0.3,0V31c-0.4,0.1-0.7,0.1-1.1,0.1c-0.3,0-0.5-0.1-0.7-0.1
    c-0.2,0-0.4-0.1-0.6-0.1C37.3,30.9,37,31,36.7,31.1z M33.8,31.2c-0.4-0.2-0.8-0.2-1.1-0.2c-0.2,0-0.4,0-0.6,0.1
    c-0.2,0-0.4,0.1-0.7,0.1c-0.3,0-0.5,0-0.8,0l-0.3,0v-0.5c0.4,0.1,0.7,0.1,1.1,0.1c0.2,0,0.4-0.1,0.6-0.1c0.2,0,0.4-0.1,0.7-0.1
    c0.3,0,0.6,0,0.9,0.1l0.2,0.1V31.2z M36.7,29.8l-0.2,0.1v-0.5c0.4-0.1,0.8-0.2,1.1-0.2c0.3,0,0.5,0,0.7,0.1c0.2,0,0.3,0.1,0.6,0.1
    c0.3,0,0.5,0,0.8,0l0.3,0v0.5c-0.4,0.1-0.7,0.1-1.1,0.1c-0.3,0-0.5-0.1-0.7-0.1c-0.2,0-0.4-0.1-0.6-0.1C37.3,29.7,37,29.7,36.7,29.8
    z M30.6,29.8l-0.3,0v-0.5c0.4,0.1,0.7,0.1,1.1,0.1c0.2,0,0.4-0.1,0.6-0.1c0.2,0,0.4-0.1,0.7-0.1c0.3,0,0.6,0,0.9,0.1l0.2,0.1v0.5
    c-0.4-0.2-0.8-0.2-1.1-0.2c-0.2,0-0.4,0-0.6,0.1c-0.2,0-0.4,0.1-0.7,0.1C31.2,29.9,30.9,29.9,30.6,29.8z M30.6,28.6l-0.3,0v-0.5
    c0.4,0.1,0.7,0.1,1.1,0.1c0.2,0,0.4-0.1,0.6-0.1c0.2,0,0.4-0.1,0.7-0.1c0.3,0,0.6,0,0.9,0.1l0.2,0.1v0.5c-0.4-0.2-0.8-0.2-1.1-0.2
    c-0.2,0-0.4,0-0.6,0.1c-0.2,0-0.4,0.1-0.7,0.1C31.2,28.7,30.9,28.6,30.6,28.6z M36.7,28.6l-0.2,0.1v-0.5c0.4-0.1,0.8-0.2,1.1-0.2
    c0.3,0,0.5,0,0.7,0.1c0.2,0,0.3,0.1,0.6,0.1c0.3,0,0.5,0,0.8,0l0.3,0v0.5c-0.4,0.1-0.7,0.1-1.1,0.1c-0.3,0-0.5-0.1-0.7-0.1
    c-0.2,0-0.4-0.1-0.6-0.1C37.3,28.4,37,28.5,36.7,28.6z M36.7,27.4l-0.2,0.1V27c0.4-0.1,0.8-0.2,1.1-0.2c0.3,0,0.5,0,0.7,0.1
    c0.2,0,0.3,0.1,0.6,0.1c0.3,0,0.5,0,0.8,0l0.3,0v0.5c-0.4,0.1-0.7,0.1-1.1,0.1c-0.3,0-0.5-0.1-0.7-0.1c-0.2,0-0.4-0.1-0.6-0.1
    C37.3,27.2,37,27.3,36.7,27.4z M30.6,27.4l-0.3,0v-0.5c0.4,0.1,0.7,0.1,1.1,0.1c0.2,0,0.4-0.1,0.6-0.1c0.2,0,0.4-0.1,0.7-0.1
    c0.3,0,0.6,0,0.9,0.1l0.2,0.1v0.5c-0.4-0.2-0.8-0.2-1.1-0.2c-0.2,0-0.4,0-0.6,0.1c-0.2,0-0.4,0.1-0.7,0.1
    C31.2,27.4,30.9,27.4,30.6,27.4z"
    fill="#CC0033"
  ></path>
  <path
    d="M82.4,36.1c-1.3-2.3-4.7-8.5-5.1-10.9c0,0,0-0.2,0-0.3
    c3.1-1.5,5.6-3.9,5.6-7.6C82.8,8.1,74,9,67.4,9L60,9v0.7l1.6,0.1c0.9,0.1,1.5,0.2,1.7,1.1c0.3,1.1,0.2,4,0.2,5.2v16.4
    c0,1.2,0.1,4.1-0.2,5.2c-0.3,0.9-0.8,1-1.7,1.1L60,39v0.7h10.9V39l-1.6-0.1c-0.9-0.1-1.5-0.2-1.7-1.1c-0.3-1.1-0.2-4-0.2-5.2l0-6.4
    c0.8,0,2.2,0,2.7,0c0.8,0,1.9,0,2.7,0.4c0.5,0.3,1,0.8,1.3,1.6c1.5,3,3.1,6.3,4.8,9.2c4.2,7.1,11.3,15.9,19.3,15.6l1,0l0-0.9l-0.7,0
    C92.9,52.4,85.3,41.5,82.4,36.1z M71,25.1c-1.2,0-2.4,0.1-3.6,0l0-14.5c1-0.2,2-0.4,3.1-0.4c5.1,0,7.9,3,7.9,7.9
    C78.4,22.7,75.6,25.1,71,25.1z M103.5,14.5h9.4v0.8l-1.4,0.1c-1.5,0.2-1.5,0.3-1.5,4.7v19.6l-1.2,0.3l-1-1.1
    c-0.5-0.5-0.8-1.1-1.4-1.1c-0.5,0-3.7,2.4-8.9,2.4c-8,0-8.6-4.5-8.6-9.7l0-10.9c0-3.8-0.1-4-1.5-4.2l-1.4-0.1v-0.8h9.4v0.8l-1.4,0.1
    c-1.4,0.1-1.5,0.3-1.5,4.2l0,10.3c0,5.5,0.9,9.1,6.9,9.1c4,0,6.4-2.4,7-3.1l0-16.1c0-4.1-0.1-4.3-1.5-4.4l-1.4-0.1V14.5z
        M151.6,29.7h9.8v0.8l-1.4,0.1c-0.7,0.1-0.7,0.3-0.7,3.5l0,0.5c0,1.1,0.1,4.1,0.1,4.1c-1.4,0.4-4.3,1.5-8.4,1.5
    c-7.7,0-14.7-3.4-14.7-13.1c0-10.2,8.3-13.2,14.4-13.2c3.9,0,6.9,1,7.9,1.6c0.2,1.6,0.4,3.8,0.6,5.7l-1,0.2
    c-0.4-1.5-0.9-6.2-7.5-6.2c-6.3,0-10.3,4.1-10.3,11.3c0,6.5,3.3,12.6,10.9,12.6c1.4,0,3.2-0.2,4.5-0.5l0-3.4c0-4.2-0.1-4.3-2.7-4.5
    l-1.4-0.1V29.7z M225,33.2c0,5.2-4.8,7.1-8.9,7.1c-3,0-4.9-0.8-6-1.5c-0.4-1.4-0.8-4.1-1.2-6.7l1.2-0.3c0.4,2.8,1.8,7.3,7.1,7.3
    c2.7,0,4.6-1.7,4.6-4.7c0-2.8-2.3-4.7-5.4-6L214,27c-2.2-1.2-4.2-3.6-4.2-6.4c0-4.7,3.9-6.6,8-6.6c2.4,0,4.3,0.6,5.3,1.2
    c0.2,1.4,0.3,4.2,0.4,5.3h-1c-0.4-1.9-1-5.2-5.3-5.2c-2.2,0-4.2,1.6-4.2,4.2c0,2.3,1.7,3.5,3.7,4.7l2.1,1.2
    C221.8,27,225,28.6,225,33.2z M202.1,32.9c-1-1.8-2.3-4.3-2.9-5.4c2.1-1,5.3-3.1,5.3-6.7c0-5.8-5.2-6.3-8.8-6.3h-10v0.8l1.4,0.1
    c1.4,0.1,1.5,0.3,1.5,4.2v15c0,3.9-0.1,4-1.5,4.2l-1.4,0.1v0.8h9.3v-0.8l-1.4-0.1c-1.4-0.1-1.5-0.3-1.5-4.2l0-5.9l1.6,0
    c0.8,0,1.6,0,2.2,0.5c0.5,0.4,1.4,1.9,2.4,3.7l1.5,2.9c1.2,2.1,2.9,3.8,5.5,3.8h3v-0.8c-0.8,0-1.5-0.1-1.9-0.4
    C205.4,38,203.7,35.7,202.1,32.9z M194.3,27.7h-2.2V16.1c0.8-0.2,1.6-0.3,2.4-0.3c3,0,6,1.4,6,5.8C200.5,25.9,197.6,27.7,194.3,27.7
    z M181.7,33.2l1,0.2c-0.3,2.4-0.8,4.3-1.3,6.3h-17.6v-0.8l1.4-0.1c1.4-0.1,1.5-0.3,1.5-4.2v-15c0-3.9-0.1-4-1.5-4.2l-1.4-0.1v-0.8
    h16.6c0.2,0.8,0.3,5.2,0.3,5.6l-0.9,0.2c-0.8-4.1-0.9-4.7-6.4-4.7h-3.2v10.5l3.7,0c2.8,0,3.4-0.1,3.7-1.6l0.2-1.3h1v6.9h-1l-0.2-1.3
    c-0.2-1.6-0.9-1.6-3.9-1.6h-3.4v11c1.4,0.3,2.8,0.5,4.2,0.5C180.5,38.7,180.9,36.4,181.7,33.2z M135.2,14.5c0.2,0.8,0.3,5.9,0.3,6.1
    h-0.9c-0.8-4.4-0.9-5-6.4-5h-2l0,18.7c0,4.1,0.1,4.3,2.2,4.5l1.4,0.1v0.8h-10.7v-0.8l1.4-0.1c2-0.1,2.1-0.3,2.1-4.2l0-19l-2.3,0
    c-5.2,0-5.2,0.7-6.1,5h-0.9c0-0.2,0.2-5.2,0.3-6.1H135.2z"
    fill="#CC0033"
  ></path>
</svg>
